<?xml version="1.0" standalone="no"?>
<!DOCTYPE svg PUBLIC "-//W3C//DTD SVG 20010904//EN"
 "http://www.w3.org/TR/2001/REC-SVG-20010904/DTD/svg10.dtd">
<svg version="1.0" xmlns="http://www.w3.org/2000/svg"
 width="1190.000000pt" height="1280.000000pt" viewBox="0 0 1190.000000 1280.000000"
 preserveAspectRatio="xMidYMid meet">
<metadata>
Created by potrace 1.15, written by Peter Selinger 2001-2017
</metadata>
<g transform="translate(0.000000,1280.000000) scale(0.100000,-0.100000)"
fill="#000000" stroke="none">
<path d="M8325 12776 c-258 -62 -501 -180 -719 -350 -211 -165 -344 -394 -666
-1146 -241 -564 -346 -764 -459 -880 -120 -123 -203 -100 -305 83 -69 123
-134 301 -277 757 -192 612 -305 891 -450 1115 -73 112 -206 242 -290 283
-134 65 -206 77 -464 77 -193 -1 -250 -4 -355 -23 -475 -85 -1019 -278 -1600
-568 -550 -275 -814 -460 -1204 -843 -530 -522 -896 -1059 -898 -1316 0 -74
16 -110 73 -159 114 -97 351 -140 779 -139 442 1 881 54 1155 140 105 33 159
61 218 114 151 133 253 344 382 791 26 92 52 165 57 162 5 -4 6 -212 2 -507
-7 -534 -2 -648 37 -788 43 -154 101 -255 279 -479 182 -228 219 -295 330
-590 34 -91 87 -230 118 -310 276 -726 342 -1154 228 -1487 -70 -204 -177
-357 -507 -720 -210 -230 -360 -405 -445 -518 -121 -160 -349 -513 -867 -1340
-620 -989 -711 -1130 -1302 -2015 -887 -1328 -1063 -1611 -1115 -1787 -17 -55
4 -93 51 -93 27 0 60 28 243 208 233 229 330 312 448 383 113 68 166 84 268
82 150 -2 291 -54 760 -275 307 -146 463 -211 605 -254 78 -24 108 -28 225
-28 130 -1 137 0 195 28 73 36 182 142 248 242 25 38 96 167 158 284 165 317
219 393 305 426 42 16 47 16 91 -1 105 -40 226 -184 510 -610 236 -353 357
-502 477 -584 234 -162 431 -63 765 384 54 72 164 219 244 327 324 435 459
505 625 323 73 -79 140 -192 306 -515 81 -155 170 -319 199 -364 150 -229 297
-310 442 -242 148 69 278 232 575 721 245 404 358 563 487 686 186 178 304
174 558 -18 106 -80 370 -340 658 -648 291 -311 394 -395 488 -395 149 0 154
201 18 745 -172 688 -643 2088 -1161 3455 -218 574 -380 903 -770 1565 -360
611 -435 773 -535 1155 -50 193 -56 331 -19 461 29 104 140 341 209 446 82
128 201 258 612 673 415 419 526 542 635 701 194 283 248 566 233 1232 -3 155
-3 300 2 322 l8 40 14 -35 c9 -19 46 -136 83 -260 133 -439 229 -614 376 -686
51 -25 61 -26 147 -21 260 15 825 238 1240 489 398 240 584 455 547 634 -34
161 -244 370 -635 629 -546 363 -1291 711 -1755 821 -112 27 -124 27 -465 30
-339 3 -353 3 -450 -20z"/>
</g>
</svg>
